HIERARCHY
ROOT Hips
{
	OFFSET 0.000000 88.474243 0.000000
	CHANNELS 6 Xposition Yposition Zposition Zrotation Yrotation Xrotation 
	JOINT Hips_Spine
	{
		OFFSET 0.000000 0.000000 0.000000
		CHANNELS 3 Zrotation Yrotation Xrotation
		JOINT Spine
		{
			OFFSET 0.005100 8.711998 -0.691000
			CHANNELS 3 Zrotation Yrotation Xrotation
			JOINT Spine1
			{
				OFFSET -0.009200 8.660301 -1.275000
				CHANNELS 3 Zrotation Yrotation Xrotation
				JOINT Spine2
				{
					OFFSET 0.006300 9.852501 -1.857000
					CHANNELS 3 Zrotation Yrotation Xrotation
					JOINT Spine2_Neck
					{
						OFFSET 0.000000 0.000000 0.000000
						CHANNELS 3 Zrotation Yrotation Xrotation
						JOINT Neck
						{
							OFFSET 0.016300 11.420799 -0.263300
							CHANNELS 3 Zrotation Yrotation Xrotation
							End Site #name: Head
							{
								OFFSET -0.019200 9.262405 2.362500
							}
						}
					}
					JOINT Spine2_LeftShoulder
					{
						OFFSET 0.000000 0.000000 0.000000
						CHANNELS 3 Zrotation Yrotation Xrotation
						JOINT LeftShoulder
						{
							OFFSET 5.616900 6.732201 -0.345700
							CHANNELS 3 Zrotation Yrotation Xrotation
							JOINT LeftArm
							{
								OFFSET 10.664888 -0.183372 -2.440700
								CHANNELS 3 Zrotation Yrotation Xrotation
								JOINT LeftForeArm
								{
									OFFSET 27.459126 0.000000 0.000000
									CHANNELS 3 Zrotation Yrotation Xrotation
									End Site #name: LeftHand
									{
										OFFSET 21.306858 0.000000 0.000000
									}
								}
							}
						}
					}
					JOINT Spine2_RightShoulder
					{
						OFFSET 0.000000 0.000000 0.000000
						CHANNELS 3 Zrotation Yrotation Xrotation
						JOINT RightShoulder
						{
							OFFSET -5.580300 6.737503 -0.344400
							CHANNELS 3 Zrotation Yrotation Xrotation
							JOINT RightArm
							{
								OFFSET -10.679335 -0.188484 -2.383900
								CHANNELS 3 Zrotation Yrotation Xrotation
								JOINT RightForeArm
								{
									OFFSET -27.503529 0.000000 0.000000
									CHANNELS 3 Zrotation Yrotation Xrotation
									End Site #name: RightHand
									{
										OFFSET -21.306808 0.000000 0.000000
									}
								}
							}
						}
					}
				}
			}
		}
	}
	JOINT Hips_LeftUpLeg
	{
		OFFSET 0.000000 0.000000 0.000000
		CHANNELS 3 Zrotation Yrotation Xrotation
		JOINT LeftUpLeg
		{
			OFFSET 6.857700 -6.739601 0.312100
			CHANNELS 3 Zrotation Yrotation Xrotation
			JOINT LeftLeg
			{
				OFFSET -0.367590 -34.731552 -4.572400
				CHANNELS 3 Zrotation Yrotation Xrotation
				End Site #name: LeftFoot
				{
					OFFSET 0.367590 -34.656704 -6.067400
				}
			}
		}
	}
	JOINT Hips_RightUpLeg
	{
		OFFSET 0.000000 0.000000 0.000000
		CHANNELS 3 Zrotation Yrotation Xrotation
		JOINT RightUpLeg
		{
			OFFSET -6.876100 -6.733299 0.301000
			CHANNELS 3 Zrotation Yrotation Xrotation
			JOINT RightLeg
			{
				OFFSET 0.347353 -34.795158 -4.515900
				CHANNELS 3 Zrotation Yrotation Xrotation
				End Site #name: RightFoot
				{
					OFFSET -0.347353 -34.589367 -6.070300
				}
			}
		}
	}
}
MOTION
Frames: 12
Frame Time: 0.041667
-0.613586 0.008650 -1.253142 -9.511306 1.983451 -8.706666 0.000000 0.000000 0.000000 3.359862 0.207454 13.508537 1.647242 -0.434763 6.729308 0.000000 0.000000 0.000000 1.943902 -0.073587 6.854676 1.229136 -3.319707 11.010396 1.595074 -0.187715 6.307573 -9.533701 -6.368630 1.752455 -56.151917 -32.690034 2.582758 0.117741 -70.654913 0.356859 1.657289 -0.324219 6.629190 7.143831 5.351281 2.833812 85.487214 42.436838 47.982531 -0.271879 54.204954 -0.023637 0.000000 0.000000 0.000000 6.759747 2.156402 -88.405384 -8.317164 2.104901 94.775428 -0.000000 -0.000000 0.000000 6.723012 -15.452960 -76.897896 5.381828 -5.882504 92.060485 
-0.634939 0.010629 -1.290251 -9.492150 1.970749 -8.703713 0.000000 0.000000 0.000000 3.335219 0.226990 13.443305 1.626327 -0.430912 6.695438 0.000000 0.000000 0.000000 1.922033 -0.069367 6.823908 1.064595 -3.246193 10.920627 1.579333 -0.180021 6.276653 -9.489417 -6.489372 1.775020 -56.107081 -32.689809 2.463404 0.129654 -70.440889 0.340225 1.645788 -0.317941 6.592974 7.136901 5.333561 2.885459 85.400211 42.451705 47.870737 -0.269639 54.026019 -0.034068 0.000000 0.000000 0.000000 6.762047 2.155367 -88.410366 -8.317308 2.104353 94.773155 -0.000000 -0.000000 0.000000 6.727878 -15.456034 -76.910593 5.383338 -5.887395 92.072847 
-0.654472 0.012685 -1.327310 -9.474261 1.957812 -8.704076 0.000000 0.000000 0.000000 3.315702 0.246651 13.361731 1.604969 -0.427054 6.659464 0.000000 0.000000 0.000000 1.900153 -0.064852 6.790568 0.898556 -3.170221 10.824902 1.564568 -0.171751 6.246567 -9.452352 -6.599620 1.795933 -56.066747 -32.658578 2.355048 0.140123 -70.227915 0.325324 1.633927 -0.311887 6.554348 7.124414 5.321606 2.941458 85.321094 42.478948 47.744787 -0.268214 53.871152 -0.043636 0.000000 0.000000 0.000000 6.764112 2.156123 -88.411602 -8.317001 2.103895 94.768306 -0.000000 -0.000000 0.000000 6.734033 -15.461737 -76.924919 5.383570 -5.890062 92.085913 
-0.672046 0.014742 -1.364267 -9.456823 1.941185 -8.701573 0.000000 0.000000 0.000000 3.298588 0.265695 13.287410 1.584799 -0.423429 6.624171 0.000000 0.000000 0.000000 1.879179 -0.060536 6.757933 0.733860 -3.093576 10.732521 1.549708 -0.164148 6.214851 -9.416906 -6.708258 1.816918 -56.018510 -32.589875 2.243975 0.150667 -69.914610 0.310106 1.622799 -0.305883 6.516685 7.106897 5.318493 2.994579 85.244471 42.513396 47.618389 -0.265857 53.670095 -0.049521 0.000000 0.000000 0.000000 6.764977 2.156537 -88.413307 -8.319460 2.101955 94.764433 -0.000000 -0.000000 0.000000 6.741067 -15.465791 -76.937294 5.382265 -5.894175 92.095570 
-0.687685 0.016729 -1.401188 -9.442593 1.923314 -8.696537 0.000000 0.000000 0.000000 3.282718 0.277617 13.241957 1.564474 -0.419656 6.584325 0.000000 0.000000 0.000000 1.858629 -0.056045 6.725180 0.574176 -3.017719 10.641186 1.535329 -0.156611 6.183239 -9.387430 -6.809107 1.836560 -55.969816 -32.513370 2.175250 0.156741 -69.575191 0.299879 1.611080 -0.299170 6.479569 7.089206 5.319487 3.047060 85.169185 42.546423 47.505384 -0.263577 53.474390 -0.055205 0.000000 0.000000 0.000000 6.767655 2.154988 -88.423329 -8.322156 2.102990 94.767454 -0.000000 -0.000000 0.000000 6.746560 -15.469343 -76.952395 5.380656 -5.898615 92.106693 
-0.701283 0.018823 -1.438063 -9.428492 1.903707 -8.693745 0.000000 0.000000 0.000000 3.267885 0.288099 13.199810 1.547067 -0.415748 6.547442 0.000000 0.000000 0.000000 1.845523 -0.049467 6.692489 0.416532 -2.944117 10.551671 1.521745 -0.148395 6.154332 -9.351604 -6.915935 1.857084 -55.934375 -32.443496 2.143922 0.163887 -69.212755 0.289143 1.600432 -0.293190 6.444922 7.073722 5.315328 3.095119 85.093257 42.567222 47.394827 -0.261836 53.285459 -0.061084 0.000000 0.000000 0.000000 6.769053 2.154010 -88.431161 -8.323430 2.103205 94.767197 -0.000000 -0.000000 0.000000 6.752722 -15.472483 -76.967658 5.380325 -5.899241 92.117217 
-0.712790 0.020956 -1.474825 -9.414212 1.882952 -8.689384 0.000000 0.000000 0.000000 3.253426 0.298985 13.160580 1.536903 -0.409839 6.514978 0.000000 0.000000 0.000000 1.833075 -0.043102 6.661327 0.304049 -2.879501 10.450051 1.508860 -0.140515 6.126918 -9.316970 -7.012238 1.876666 -55.891079 -32.372517 2.110294 0.171265 -68.875577 0.276677 1.589602 -0.286833 6.411258 7.057588 5.311284 3.141585 85.027075 42.592663 47.321740 -0.261111 53.086277 -0.068104 0.000000 0.000000 0.000000 6.768320 2.153851 -88.431264 -8.323155 2.102690 94.759560 -0.000000 -0.000000 0.000000 6.755575 -15.476894 -76.980246 5.379066 -5.901932 92.128191 
-0.722174 0.023150 -1.511442 -9.403966 1.861309 -8.684590 0.000000 0.000000 0.000000 3.239372 0.309016 13.123742 1.526843 -0.404274 6.482844 0.000000 0.000000 0.000000 1.821145 -0.036787 6.631103 0.268884 -2.829778 10.326830 1.496193 -0.132983 6.101212 -9.273258 -7.114314 1.896522 -55.817179 -32.322050 2.014980 0.175182 -68.526310 0.266767 1.579476 -0.280903 6.378935 7.049635 5.299364 3.183421 84.976483 42.628163 47.261797 -0.260608 52.880796 -0.074731 0.000000 0.000000 0.000000 6.767578 2.152302 -88.439804 -8.325640 2.101476 94.761166 -0.000000 -0.000000 0.000000 6.761208 -15.481662 -76.994978 5.378233 -5.904938 92.138397 
-0.729436 0.025456 -1.547972 -9.395917 1.842263 -8.680727 0.000000 0.000000 0.000000 3.228182 0.318027 13.086323 1.516772 -0.398528 6.449502 0.000000 0.000000 0.000000 1.809516 -0.030259 6.602111 0.241339 -2.781043 10.217257 1.484253 -0.126031 6.076028 -9.230488 -7.212639 1.918299 -55.717550 -32.246261 1.886353 0.181530 -68.133570 0.255839 1.569662 -0.274596 6.347479 7.035749 5.300299 3.221265 84.931295 42.665978 47.237351 -0.258484 52.684035 -0.079454 0.000000 0.000000 0.000000 6.769432 2.149932 -88.450902 -8.326785 2.102471 94.763029 -0.000000 -0.000000 0.000000 6.765537 -15.485685 -77.010010 5.376766 -5.907275 92.145805 
-0.734613 0.027823 -1.584393 -9.389142 1.820366 -8.676568 0.000000 0.000000 0.000000 3.218702 0.323283 13.055086 1.506861 -0.392651 6.420977 0.000000 0.000000 0.000000 1.797615 -0.023578 6.574993 0.259753 -2.737850 10.191979 1.472384 -0.119051 6.054406 -9.197352 -7.311705 1.940938 -55.614015 -32.180619 1.741899 0.186449 -67.760687 0.247989 1.559997 -0.269236 6.318306 7.020812 5.299972 3.260016 84.901276 42.708376 47.202576 -0.257683 52.467889 -0.082099 0.000000 0.000000 0.000000 6.769798 2.148814 -88.453857 -8.328669 2.102866 94.758690 -0.000000 -0.000000 0.000000 6.766548 -15.490239 -77.021085 5.375429 -5.910033 92.158639 
-0.737751 0.030385 -1.620660 -9.383813 1.801422 -8.674976 0.000000 0.000000 0.000000 3.210244 0.327151 13.024265 1.496812 -0.387136 6.395322 0.000000 0.000000 0.000000 1.785922 -0.016902 6.548407 0.284045 -2.696013 10.179478 1.460982 -0.112544 6.033802 -9.161784 -7.401537 1.961471 -55.522629 -32.135605 1.617439 0.190320 -67.410719 0.240256 1.550410 -0.263825 6.291732 7.003423 5.297213 3.294499 84.872383 42.747843 47.163247 -0.254574 52.282773 -0.083237 0.000000 0.000000 0.000000 6.768680 2.147601 -88.456536 -8.329622 2.102899 94.755886 -0.000000 -0.000000 0.000000 6.769494 -15.495272 -77.036465 5.373810 -5.913238 92.167305 
-0.738883 0.033104 -1.656775 -9.380751 1.782389 -8.673448 -0.000000 0.000000 0.000000 3.203286 0.331499 12.995193 1.486254 -0.381203 6.369065 0.000000 0.000000 0.000000 1.774402 -0.010533 6.523020 0.310409 -2.654066 10.165406 1.449686 -0.105958 6.013039 -9.128403 -7.479993 1.979742 -55.434515 -32.085325 1.487548 0.196881 -67.094666 0.229754 1.540748 -0.258265 6.263768 6.985486 5.294242 3.329071 84.846027 42.788452 47.119105 -0.251801 52.082753 -0.083522 0.000000 0.000000 0.000000 6.767493 2.146285 -88.461865 -8.330348 2.103298 94.758621 -0.000000 -0.000000 0.000000 6.771450 -15.498591 -77.047797 5.372792 -5.912767 92.170187 
